<?xml version="1.0" standalone="no"?>
<svg xmlns="http://www.w3.org/2000/svg" viewBox="0 0 213.768 36" width="213.768" height="36"><g fill="#d61216" color="#d61216" transform="translate(0 4) scale(0.5384616)"><svg width="52.0" height="52.0" x="0.0" y="0.0" viewBox="0 0 52 52"><path fill="currentColor" fill-rule="evenodd" d="M48.231 30.94l-.26 1.04c0 .173-.087.173-.087.173v-.173c.867-7.973-10.4-12.566-22.966-12.566-2.514 0-5.2.173-7.714.606-3.986.607-7.02 1.56-9.186 2.6.26 2.774 2.773 3.12 4.333 3.12h.52c2.253-.086 5.027-.52 6.413-.693.174 0 .434-.087.52-.087 1.56-.173 3.207-.346 4.767-.346 7.02 0 14.04 1.905 17.767 6.153 3.639 4.16 2.426 9.013-2.514 13.26-4.506 3.813-10.314 4.592-13.347 4.767h-.693c-3.293 0-6.153-.954-6.673-1.214-4.853-1.906-4.16-5.113-1.473-6.846 2.166-1.387 4.853-1.994 7.366-1.994 4.506 0 8.494 1.907 8.06 4.42-.26 1.734-2.34 2.687-3.987 2.687-.433 0-.867-.087-1.213-.261l-.087-.086c-.086-.173-.173-.26-.606-.433a5.446 5.446 0 0 0-1.647-.26c-1.56 0-3.206.607-3.64 1.473-.26.606.26 1.04.954 1.3.78.26 1.646.347 2.426.347.954 0 1.734-.087 2.167-.174 5.027-.867 9.446-3.206 11.267-5.286 1.473-1.733 1.126-4.16-2.947-6.067-3.467-1.733-7.887-2.08-11.18-2.08-2.167 0-3.813.174-4.42.26-.433.087-3.207.434-6.24.434h-.693c-1.04 0-1.994-.087-3.034-.261-2.773-.346-5.98-2.686-6.933-6.067a12.367 12.367 0 0 1-.173-.952v-.52c-.087-2.774-.26-6.674 1.646-9.36 3.814-5.287 11.614-7.627 19.587-7.627 11.093 0 22.62 4.68 24.18 12.827.086 0 .693 3.726-.26 7.886M23.791 3.207a22.726 22.726 0 0 1 20.02 8.493c-5.113-3.033-11.613-4.853-18.633-4.68-6.327.087-12.134 1.734-16.987 4.42 3.813-4.506 9.273-7.626 15.6-8.233m28.08 20.28c-.52-5.027-2.427-9.793-5.633-13.78A25.978 25.978 0 0 0 25.958 0c-.867 0-1.647 0-2.514.087-6.846.693-13.086 3.987-17.506 9.36C1.518 14.82-.562 21.58.13 28.427 1.344 41.947 12.698 52 25.958 52c.866 0 1.646 0 2.513-.086 6.933-.695 13.173-3.987 17.593-9.361a26.535 26.535 0 0 0 5.807-19.066"></path></svg></g><path fill="#152452" fill-rule="nonzero" d="M6.17 3.05L4.03 3.05L4.03 10.10L5.69 10.10Q7.20 10.10 7.76 9.71Q8.33 9.31 8.35 8.16L8.35 8.16Q8.93 7.99 9.50 7.99L9.50 7.99Q9.46 8.81 9.46 10.61L9.46 10.61Q9.46 12.58 9.50 13.39L9.50 13.39Q8.86 13.39 8.40 13.27L8.40 13.27Q8.30 12.02 7.74 11.58Q7.18 11.14 5.69 11.14L5.69 11.14L4.03 11.14L4.03 14.78Q4.03 15.82 4.25 16.36Q4.46 16.90 4.91 17.10Q5.35 17.30 6.17 17.35L6.17 17.35Q6.29 17.69 6.29 18.38L6.29 18.38Q5.18 18.31 3.26 18.31L3.26 18.31Q0.94 18.31 0 18.38L0 18.38Q0 17.69 0.12 17.35L0.12 17.35Q1.08 17.30 1.43 16.88Q1.78 16.46 1.78 15.26L1.78 15.26L1.78 5.14Q1.78 3.94 1.43 3.52Q1.08 3.10 0.12 3.05L0.12 3.05Q0 2.71 0 2.02L0 2.02Q1.58 2.09 4.01 2.09L4.01 2.09Q8.30 2.09 10.68 2.02L10.68 2.02Q10.92 4.66 11.18 5.81L11.18 5.81Q10.82 6.10 10.10 6.10L10.10 6.10Q9.98 4.75 9.13 3.90Q8.28 3.05 6.17 3.05L6.17 3.05ZM23.78 15.50Q24.43 16.46 25.12 16.86Q25.80 17.26 26.81 17.30L26.81 17.30Q26.81 18 26.71 18.31L26.71 18.31Q24.67 18.31 23.26 18.48L23.26 18.48Q23.09 18.19 22.61 17.47L22.61 17.47L21.53 15.72Q20.64 14.23 19.18 13.30L19.18 13.30L18.41 13.32L17.71 13.30L17.71 15.48Q17.71 16.27 17.83 16.66Q17.95 17.04 18.23 17.18Q18.50 17.33 19.08 17.35L19.08 17.35Q19.18 17.64 19.18 18.36L19.18 18.36Q18.29 18.31 16.56 18.31L16.56 18.31Q15.29 18.31 13.94 18.36L13.94 18.36Q13.94 17.69 14.06 17.35L14.06 17.35Q14.66 17.30 14.96 17.16Q15.26 17.02 15.38 16.66Q15.50 16.30 15.50 15.58L15.50 15.58L15.50 9.07Q15.50 8.04 15.22 7.70Q14.93 7.37 14.06 7.32L14.06 7.32Q13.94 6.96 13.94 6.26L13.94 6.26Q14.86 6.31 16.58 6.31L16.58 6.31L18.31 6.29Q19.56 6.24 20.21 6.24L20.21 6.24Q22.51 6.24 23.69 7.13Q24.86 8.02 24.86 9.41L24.86 9.41Q24.86 10.80 23.98 11.70Q23.09 12.60 21.50 12.91L21.50 12.91Q22.10 13.27 22.50 13.74Q22.90 14.21 23.78 15.50L23.78 15.50ZM18.62 12.12Q20.35 12.12 21.46 11.51Q22.56 10.90 22.56 9.72L22.56 9.72Q22.56 7.27 19.20 7.27L19.20 7.27Q18.43 7.27 17.71 7.42L17.71 7.42L17.71 12.05Q18.22 12.12 18.62 12.12L18.62 12.12ZM41.98 17.28Q42.10 17.64 42.10 18.36L42.10 18.36Q41.14 18.31 39.62 18.31L39.62 18.31Q38.04 18.31 37.08 18.36L37.08 18.36Q37.08 17.62 37.22 17.28L37.22 17.28Q37.78 17.21 38.00 17.08Q38.23 16.94 38.23 16.68L38.23 16.68Q38.23 16.46 37.99 15.94L37.99 15.94L37.51 14.90Q34.06 14.90 32.06 15.02L32.06 15.02L31.80 15.65Q31.56 16.20 31.56 16.51L31.56 16.51Q31.56 17.18 32.54 17.28L32.54 17.28Q32.69 17.71 32.69 18.36L32.69 18.36Q31.78 18.31 30.70 18.31L30.70 18.31Q29.76 18.31 28.99 18.36L28.99 18.36Q28.99 17.78 29.14 17.28L29.14 17.28Q29.66 17.18 29.95 16.84Q30.24 16.49 30.72 15.43L30.72 15.43L34.85 6.29Q35.30 6.19 35.81 6.19L35.81 6.19L40.22 15.36Q40.75 16.46 41.12 16.85Q41.50 17.23 41.98 17.28L41.98 17.28ZM32.54 13.92L37.03 13.92L35.59 10.90Q34.97 9.62 34.73 8.88L34.73 8.88Q34.54 9.48 34.26 10.07Q33.98 10.66 33.91 10.80L33.91 10.80L32.54 13.92ZM56.64 6.31Q57.55 6.31 58.66 6.26L58.66 6.26Q58.66 6.98 58.56 7.34L58.56 7.34Q58.06 7.39 57.79 7.61Q57.53 7.82 57.42 8.34Q57.31 8.86 57.31 9.86L57.31 9.86L57.31 18.34Q57 18.48 56.33 18.48L56.33 18.48L47.71 8.95L47.71 14.71Q47.71 15.74 47.84 16.27Q47.98 16.80 48.29 17.02Q48.60 17.23 49.20 17.28L49.20 17.28Q49.32 17.66 49.32 18.36L49.32 18.36Q48.02 18.31 47.18 18.31L47.18 18.31Q46.06 18.31 45 18.36L45 18.36Q45 17.66 45.12 17.28L45.12 17.28Q45.72 17.23 46.02 17.02Q46.32 16.80 46.45 16.27Q46.58 15.74 46.58 14.71L46.58 14.71L46.58 7.70L46.56 7.68Q46.39 7.51 46.13 7.45Q45.86 7.39 45.12 7.34L45.12 7.34Q45 6.91 45 6.26L45 6.26Q45.86 6.31 46.68 6.31L46.68 6.31Q47.42 6.31 48.19 6.26L48.19 6.26L56.18 15.22L56.18 9.86Q56.18 8.86 56.05 8.34Q55.92 7.82 55.61 7.61Q55.30 7.39 54.67 7.34L54.67 7.34Q54.58 6.79 54.58 6.26L54.58 6.26Q55.78 6.31 56.64 6.31L56.64 6.31ZM71.74 15.36Q72.43 16.13 73.32 16.68Q74.21 17.23 75.02 17.28L75.02 17.28Q75.02 17.95 74.90 18.31L74.90 18.31Q72.84 18.31 71.59 18.46L71.59 18.46Q70.70 17.33 69.12 15.65Q67.54 13.97 66.07 12.60L66.07 12.60L66.07 15.50Q66.07 16.54 66.37 16.88Q66.67 17.23 67.54 17.28L67.54 17.28Q67.63 17.64 67.63 18.36L67.63 18.36Q66 18.31 64.99 18.31L64.99 18.31Q63.79 18.31 62.30 18.36L62.30 18.36Q62.30 17.62 62.42 17.28L62.42 17.28Q63.02 17.23 63.32 17.09Q63.62 16.94 63.74 16.58Q63.86 16.22 63.86 15.50L63.86 15.50L63.86 9.10Q63.86 8.40 63.74 8.04Q63.62 7.68 63.32 7.54Q63.02 7.39 62.42 7.34L62.42 7.34Q62.30 6.98 62.30 6.26L62.30 6.26Q63.84 6.31 64.99 6.31L64.99 6.31Q65.95 6.31 67.63 6.26L67.63 6.26Q67.63 7.01 67.54 7.34L67.54 7.34Q66.67 7.39 66.37 7.73Q66.07 8.06 66.07 9.10L66.07 9.10L66.07 12.02L69.82 8.98Q70.82 8.16 70.82 7.75L70.82 7.75Q70.82 7.39 70.10 7.34L70.10 7.34Q69.98 6.96 69.98 6.26L69.98 6.26Q70.94 6.31 72.19 6.31L72.19 6.31Q73.32 6.31 74.47 6.26L74.47 6.26Q74.47 6.94 74.33 7.34L74.33 7.34Q73.61 7.37 72.97 7.68Q72.34 7.99 71.30 8.76L71.30 8.76L68.06 11.52Q69.62 13.01 71.74 15.36L71.74 15.36ZM77.86 18.36Q77.86 17.62 77.98 17.28L77.98 17.28Q78.58 17.23 78.88 17.09Q79.18 16.94 79.30 16.58Q79.42 16.22 79.42 15.50L79.42 15.50L79.42 9.10Q79.42 8.40 79.30 8.04Q79.18 7.68 78.88 7.54Q78.58 7.39 77.98 7.34L77.98 7.34Q77.86 6.98 77.86 6.26L77.86 6.26Q79.39 6.31 80.54 6.31L80.54 6.31Q81.50 6.31 83.18 6.26L83.18 6.26Q83.18 7.01 83.09 7.34L83.09 7.34Q82.22 7.39 81.92 7.73Q81.62 8.06 81.62 9.10L81.62 9.10L81.62 15.50Q81.62 16.54 81.92 16.88Q82.22 17.23 83.09 17.28L83.09 17.28Q83.18 17.64 83.18 18.36L83.18 18.36Q81.55 18.31 80.54 18.31L80.54 18.31Q79.34 18.31 77.86 18.36L77.86 18.36ZM98.47 6.31Q99.38 6.31 100.49 6.26L100.49 6.26Q100.49 6.98 100.39 7.34L100.39 7.34Q99.89 7.39 99.62 7.61Q99.36 7.82 99.25 8.34Q99.14 8.86 99.14 9.86L99.14 9.86L99.14 18.34Q98.83 18.48 98.16 18.48L98.16 18.48L89.54 8.95L89.54 14.71Q89.54 15.74 89.68 16.27Q89.81 16.80 90.12 17.02Q90.43 17.23 91.03 17.28L91.03 17.28Q91.15 17.66 91.15 18.36L91.15 18.36Q89.86 18.31 89.02 18.31L89.02 18.31Q87.89 18.31 86.83 18.36L86.83 18.36Q86.83 17.66 86.95 17.28L86.95 17.28Q87.55 17.23 87.85 17.02Q88.15 16.80 88.28 16.27Q88.42 15.74 88.42 14.71L88.42 14.71L88.42 7.70L88.39 7.68Q88.22 7.51 87.96 7.45Q87.70 7.39 86.95 7.34L86.95 7.34Q86.83 6.91 86.83 6.26L86.83 6.26Q87.70 6.31 88.51 6.31L88.51 6.31Q89.26 6.31 90.02 6.26L90.02 6.26L98.02 15.22L98.02 9.86Q98.02 8.86 97.88 8.34Q97.75 7.82 97.44 7.61Q97.13 7.39 96.50 7.34L96.50 7.34Q96.41 6.79 96.41 6.26L96.41 6.26Q97.61 6.31 98.47 6.31L98.47 6.31ZM114.82 17.23Q116.14 17.23 116.90 16.94Q117.67 16.66 118.13 16.03Q118.58 15.41 119.02 14.21L119.02 14.21Q119.71 14.42 120.07 14.78L120.07 14.78Q119.62 16.20 119.33 18.36L119.33 18.36Q117.46 18.31 114.67 18.31L114.67 18.31Q110.26 18.31 108.46 18.38L108.46 18.38Q108.46 17.69 108.58 17.35L108.58 17.35Q109.25 17.30 109.60 17.11Q109.94 16.92 110.10 16.43Q110.26 15.94 110.26 15L110.26 15L110.26 5.14Q110.26 3.94 109.91 3.52Q109.56 3.10 108.60 3.05L108.60 3.05Q108.48 2.71 108.48 2.02L108.48 2.02Q109.87 2.09 111.38 2.09L111.38 2.09Q112.85 2.09 114.29 2.02L114.29 2.02Q114.29 2.71 114.17 3.05L114.17 3.05Q113.50 3.10 113.15 3.28Q112.80 3.46 112.66 3.91Q112.51 4.37 112.51 5.21L112.51 5.21L112.51 15Q112.51 15.94 112.68 16.39Q112.85 16.85 113.30 17.04Q113.76 17.23 114.67 17.23L114.67 17.23L114.82 17.23ZM128.86 18.53Q126.79 18.53 125.21 17.76Q123.62 16.99 122.75 15.60Q121.87 14.21 121.87 12.36L121.87 12.36Q121.87 10.54 122.75 9.12Q123.62 7.70 125.22 6.92Q126.82 6.14 128.90 6.14L128.90 6.14Q130.97 6.14 132.55 6.91Q134.14 7.68 135.01 9.08Q135.89 10.49 135.89 12.31L135.89 12.31Q135.89 14.16 135.01 15.56Q134.14 16.97 132.54 17.75Q130.94 18.53 128.86 18.53L128.86 18.53ZM129.19 17.42Q131.14 17.42 132.28 16.13Q133.42 14.83 133.42 12.67L133.42 12.67Q133.42 11.11 132.79 9.88Q132.17 8.64 131.05 7.94Q129.94 7.25 128.54 7.25L128.54 7.25Q126.60 7.25 125.47 8.56Q124.34 9.86 124.34 12L124.34 12Q124.34 13.61 124.97 14.84Q125.59 16.08 126.70 16.75Q127.80 17.42 129.19 17.42L129.19 17.42ZM129.02 4.56Q128.52 4.61 128.16 4.42L128.16 4.42Q129.24 2.21 129.72 0.29L129.72 0.29Q130.56 0 131.33 0L131.33 0Q131.86 0 132.19 0.17L132.19 0.17Q130.80 1.78 129.02 4.56L129.02 4.56ZM144.43 13.03Q145.70 13.03 146.51 12.41Q147.31 11.78 147.31 10.34L147.31 10.34Q147.31 8.98 146.46 8.17Q145.61 7.37 143.86 7.37L143.86 7.37Q143.40 7.37 142.80 7.51L142.80 7.51L142.80 15.24Q142.80 16.37 143.23 16.80Q143.66 17.23 144.72 17.28L144.72 17.28Q144.84 17.64 144.84 18.36L144.84 18.36Q143.50 18.31 142.06 18.31L142.06 18.31Q140.23 18.31 139.03 18.36L139.03 18.36Q139.03 17.62 139.15 17.28L139.15 17.28Q139.99 17.23 140.29 16.88Q140.59 16.54 140.59 15.50L140.59 15.50L140.59 9.10Q140.59 8.40 140.47 8.04Q140.35 7.68 140.05 7.54Q139.75 7.39 139.15 7.34L139.15 7.34Q139.03 6.98 139.03 6.26L139.03 6.26Q141.29 6.31 141.98 6.31L141.98 6.31L144.86 6.26Q147.34 6.26 148.49 7.30Q149.64 8.33 149.64 9.94L149.64 9.94Q149.64 11.09 149.09 12.05Q148.54 13.01 147.44 13.58Q146.35 14.16 144.82 14.16L144.82 14.16Q143.88 14.16 143.35 13.99L143.35 13.99Q143.30 13.66 143.30 13.49L143.30 13.49Q143.30 13.18 143.38 12.96L143.38 12.96Q143.74 13.03 144.43 13.03L144.43 13.03ZM162.58 14.90Q163.22 15.02 163.63 15.43L163.63 15.43Q163.20 16.56 162.98 18.34L162.98 18.34L158.35 18.31Q154.90 18.31 152.78 18.36L152.78 18.36Q152.78 17.62 152.90 17.28L152.90 17.28Q153.50 17.23 153.80 17.09Q154.10 16.94 154.22 16.56Q154.34 16.18 154.34 15.41L154.34 15.41L154.34 9.10Q154.34 8.40 154.21 8.04Q154.08 7.68 153.78 7.54Q153.48 7.39 152.90 7.34L152.90 7.34Q152.78 6.98 152.78 6.26L152.78 6.26Q154.51 6.31 156.55 6.31L156.55 6.31Q160.97 6.31 162.46 6.26L162.46 6.26Q162.72 8.52 162.91 9.24L162.91 9.24Q162.50 9.50 161.83 9.50L161.83 9.50Q161.74 8.50 161.00 7.92Q160.27 7.34 158.42 7.34L158.42 7.34L156.55 7.34L156.55 11.76L157.75 11.76Q159.02 11.76 159.52 11.47Q160.01 11.18 160.03 10.42L160.03 10.42Q160.56 10.25 161.14 10.25L161.14 10.25Q161.09 10.85 161.09 12.26L161.09 12.26Q161.09 13.80 161.14 14.35L161.14 14.35Q160.49 14.35 160.08 14.21L160.08 14.21Q160.01 13.42 159.52 13.13Q159.02 12.84 157.75 12.84L157.75 12.84L156.55 12.84L156.55 15.36Q156.55 16.13 156.71 16.52Q156.86 16.92 157.26 17.08Q157.66 17.23 158.45 17.23L158.45 17.23L158.59 17.23Q159.98 17.23 160.74 16.99Q161.50 16.75 161.87 16.28Q162.24 15.82 162.58 14.90L162.58 14.90ZM176.57 14.90Q177.31 14.98 177.77 15.34L177.77 15.34Q177.60 15.91 177.49 16.78Q177.38 17.64 177.36 18.36L177.36 18.36Q175.34 18.31 171.86 18.31L171.86 18.31Q168.98 18.31 167.16 18.36L167.16 18.36Q166.97 17.98 166.97 17.42L166.97 17.42Q166.97 17.42 170.06 13.30L170.06 13.30Q172.97 9.50 174.46 7.34L174.46 7.34L171.74 7.34Q170.78 7.34 170.23 7.54Q169.68 7.73 169.34 8.24Q169.01 8.76 168.77 9.77L168.77 9.77Q167.83 9.77 167.47 9.55L167.47 9.55Q167.66 8.88 167.77 7.97Q167.88 7.06 167.88 6.26L167.88 6.26Q169.66 6.31 173.02 6.31L173.02 6.31Q175.66 6.31 177.14 6.26L177.14 6.26Q177.38 6.74 177.38 7.20L177.38 7.20Q176.14 9.07 174.89 10.75Q173.64 12.43 171.65 15.02L171.65 15.02Q170.54 16.51 169.97 17.26L169.97 17.26L172.87 17.26Q174.19 17.26 174.88 17.08Q175.56 16.90 175.94 16.40Q176.33 15.91 176.57 14.90L176.57 14.90Z" transform="translate(36, 8.844)"></path></svg>